<?xml version="1.0" standalone="no"?><!DOCTYPE svg PUBLIC "-//W3C//DTD SVG 1.1//EN" "http://www.w3.org/Graphics/SVG/1.1/DTD/svg11.dtd"><svg t="1617954479538" class="icon" viewBox="0 0 1024 1024" version="1.1" xmlns="http://www.w3.org/2000/svg" p-id="2167" xmlns:xlink="http://www.w3.org/1999/xlink" width="200" height="200"><defs><style type="text/css"></style></defs><path d="M882.048 209.216L209.27999999999997 882.048c-18.624 18.56-48.768 18.56-67.328 0s-18.56-48.704 0-67.328L814.7199999999999 141.952c18.624-18.56 48.768-18.56 67.328 0 18.56 18.56 18.56 48.704 0 67.264z" fill="#bfbfbf" p-id="2168"></path><path d="M882.048 882.048c-18.56 18.56-48.704 18.56-67.328 0L141.952 209.216c-18.56-18.624-18.56-48.704 0-67.264 18.56-18.56 48.704-18.56 67.328 0L882.048 814.7199999999999c18.56 18.624 18.56 48.768 0 67.328z" fill="#bfbfbf" p-id="2169"></path></svg>