<?xml version="1.0" standalone="no"?><!DOCTYPE svg PUBLIC "-//W3C//DTD SVG 1.1//EN" "http://www.w3.org/Graphics/SVG/1.1/DTD/svg11.dtd"><svg t="1619161227772" class="icon" viewBox="0 0 1024 1024" version="1.1" xmlns="http://www.w3.org/2000/svg" p-id="4634" width="128" height="128" xmlns:xlink="http://www.w3.org/1999/xlink"><defs><style type="text/css"></style></defs><path d="M720.162 123.613c-81.896 0-158.047 79.628-208.159 139.388-50.097-59.776-126.227-139.388-208.166-139.388-147.634 0-267.737 115.863-267.737 258.271 0 84.96 43.02 144.566 77.595 192.458C214.192 713.441 466.886 886.546 477.592 893.84c10.306 7.027 22.372 10.547 34.394 10.547 12.056 0 24.095-3.52 34.389-10.547 10.712-7.294 263.433-180.398 363.896-319.497C944.87 526.45 987.9 466.845 987.9 381.884c0-142.408-120.102-258.271-267.738-258.271z m0 0" p-id="4635" fill="#d81e06"></path></svg>