<?xml version="1.0" standalone="no"?><!DOCTYPE svg PUBLIC "-//W3C//DTD SVG 1.1//EN" "http://www.w3.org/Graphics/SVG/1.1/DTD/svg11.dtd"><svg t="1620204265427" class="icon" viewBox="0 0 1024 1024" version="1.1" xmlns="http://www.w3.org/2000/svg" p-id="2243" xmlns:xlink="http://www.w3.org/1999/xlink" width="128" height="128"><defs><style type="text/css"></style></defs><path d="M512 0c146.1248 0 266.752 121.002667 266.752 267.605333 0 119.227733-79.735467 221.525333-188.074667 255.5904 41.984 6.690133 84.8896 17.851733 127.761067 35.362134 24.337067 9.898667 32.4608 16.2816 46.3872 23.2448 134.485333 76.8 227.293867 209.476267 257.4336 365.397333 4.642133 18.602667 0 37.205333-13.9264 53.521067a65.194667 65.194667 0 0 1-48.708267 23.278933H62.122667a65.194667 65.194667 0 0 1-48.708267-23.278933c-11.605333-16.2816-16.247467-34.9184-11.605333-53.521067 43.178667-220.9792 212.992-389.5296 423.3216-426.769067-104.106667-36.522667-179.780267-136.635733-179.780267-252.791466C245.316267 121.002667 365.909333 0 512 0z" p-id="2244" fill="#666666"></path></svg>