<?xml version="1.0" standalone="no"?><!DOCTYPE svg PUBLIC "-//W3C//DTD SVG 1.1//EN" "http://www.w3.org/Graphics/SVG/1.1/DTD/svg11.dtd"><svg t="1619183935162" class="icon" viewBox="0 0 1024 1024" version="1.1" xmlns="http://www.w3.org/2000/svg" p-id="2732" xmlns:xlink="http://www.w3.org/1999/xlink" width="128" height="128"><defs><style type="text/css"></style></defs><path d="M772.06349206 969.57968254c-10.40253968 0-22.53883598-3.46751322-32.94137566-8.66878306l-225.38835978-112.6941799-227.12211641 112.6941799c-22.53883598 12.1362963-52.01269841 10.40253968-72.81777778-5.20126984-20.80507937-15.60380952-32.94137566-43.34391535-27.74010581-69.35026456l46.81142857-242.72592592L54.28825397 477.19280424C35.21693122 458.12148148 28.28190476 428.64761905 35.21693122 404.37502646c8.66878307-26.00634921 29.47386243-45.07767195 57.21396825-48.54518519l247.92719577-45.07767195 110.96042328-225.38835979c12.1362963-24.27259259 36.40888889-39.87640211 62.4152381-39.87640212s52.01269841 15.60380952 62.41523809 39.87640212l110.96042328 225.38835979 247.92719577 43.34391534c26.00634921 3.46751322 48.54518519 22.53883598 55.48021164 48.54518518 8.66878307 26.00634921 1.73375662 53.74645503-17.33756614 72.81777778L794.60232805 643.63343916l45.07767195 242.72592592c5.20126984 27.74010582-6.93502646 53.74645503-27.74010582 69.35026456-10.40253968 8.66878307-24.27259259 13.87005291-39.87640212 13.8700529z" fill="#8a8a8a" p-id="2733"></path></svg>