<?xml version="1.0" standalone="no"?><!DOCTYPE svg PUBLIC "-//W3C//DTD SVG 1.1//EN" "http://www.w3.org/Graphics/SVG/1.1/DTD/svg11.dtd"><svg t="1617610001815" class="icon" viewBox="0 0 1024 1024" version="1.1" xmlns="http://www.w3.org/2000/svg" p-id="2254" xmlns:xlink="http://www.w3.org/1999/xlink" width="200" height="200"><defs><style type="text/css"></style></defs><path d="M995.84 896h-71.68V483.84c0-28.16-23.04-53.76-53.76-53.76H168.96c-30.72 0-53.76 23.04-53.76 53.76V896H28.16c-15.36 0-28.16 12.8-28.16 30.72 0 15.36 12.8 28.16 28.16 28.16h965.12c15.36 0 28.16-12.8 28.16-28.16 2.56-17.92-10.24-30.72-25.6-30.72z m-133.12 0H176.64V624.64c2.56 5.12 7.68 12.8 10.24 20.48 17.92 35.84 38.4 76.8 87.04 76.8s69.12-43.52 87.04-76.8c12.8-28.16 25.6-48.64 38.4-48.64s23.04 20.48 38.4 48.64c17.92 35.84 38.4 76.8 87.04 76.8s69.12-43.52 87.04-76.8c12.8-28.16 25.6-48.64 38.4-48.64s23.04 20.48 38.4 48.64c17.92 35.84 38.4 76.8 87.04 76.8s69.12-43.52 87.04-76.8c2.56-7.68 7.68-12.8 10.24-20.48V896h-10.24z m0-345.6c-28.16 12.8-46.08 46.08-58.88 71.68-12.8 28.16-25.6 48.64-38.4 48.64s-23.04-20.48-38.4-48.64c-17.92-35.84-38.4-76.8-87.04-76.8s-69.12 43.52-87.04 76.8c-12.8 28.16-25.6 48.64-38.4 48.64s-23.04-20.48-38.4-48.64c-17.92-35.84-38.4-76.8-87.04-76.8s-69.12 43.52-87.04 76.8c-12.8 28.16-25.6 48.64-38.4 48.64s-23.04-20.48-38.4-48.64c-5.12-25.6-20.48-58.88-48.64-71.68v-53.76h686.08v53.76zM320 145.92c15.36 0 25.6-10.24 25.6-25.6v-25.6c0-15.36-12.8-25.6-25.6-25.6-15.36 0-25.6 10.24-25.6 25.6v25.6c0 12.8 12.8 25.6 25.6 25.6z m0 40.96c-12.8 0-23.04 10.24-23.04 23.04v189.44c0 12.8 10.24 23.04 23.04 23.04s23.04-10.24 23.04-23.04V209.92c0-12.8-10.24-23.04-23.04-23.04z m194.56-40.96c15.36 0 25.6-10.24 25.6-25.6v-25.6c0-15.36-12.8-25.6-25.6-25.6-15.36 0-25.6 10.24-25.6 25.6v25.6c-2.56 12.8 10.24 25.6 25.6 25.6z m0 40.96c-12.8 0-23.04 10.24-23.04 23.04v189.44c0 12.8 10.24 23.04 23.04 23.04s23.04-10.24 23.04-23.04V209.92c-2.56-12.8-12.8-23.04-23.04-23.04z m192-40.96c15.36 0 25.6-10.24 25.6-25.6v-25.6c0-15.36-12.8-25.6-25.6-25.6-15.36 0-25.6 10.24-25.6 25.6v25.6c0 12.8 10.24 25.6 25.6 25.6z m0 40.96c-12.8 0-23.04 10.24-23.04 23.04v189.44c0 12.8 10.24 23.04 23.04 23.04s23.04-10.24 23.04-23.04V209.92c0-12.8-10.24-23.04-23.04-23.04z" p-id="2255" fill="#f6ef37"></path></svg>