<?xml version="1.0" standalone="no"?><!DOCTYPE svg PUBLIC "-//W3C//DTD SVG 1.1//EN" "http://www.w3.org/Graphics/SVG/1.1/DTD/svg11.dtd"><svg t="1618994289756" class="icon" viewBox="0 0 1365 1024" version="1.1" xmlns="http://www.w3.org/2000/svg" p-id="2056" xmlns:xlink="http://www.w3.org/1999/xlink" width="266.6015625" height="200"><defs><style type="text/css"></style></defs><path d="M682.666667 321.340952c-136.874667 0-247.856762 107.76381-247.856762 240.737524 0 132.87619 110.982095 240.64 247.856762 240.64 136.874667 0 247.856762-107.76381 247.856762-240.64C930.523429 429.104762 819.541333 321.340952 682.666667 321.340952zM269.360762 20.187429h-144.335238V80.944762h144.335238V20.138667zM1276.635429 140.921905h-269.994667c-20.48-14.287238-44.860952-39.594667-67.193905-84.358095C912.335238 2.048 814.567619 0.390095 814.567619 0.390095h-314.806857s-32.182857-7.801905-70.070857 55.442286c-25.648762 42.812952-48.810667 69.290667-70.704762 84.992H88.649143c-48.615619 0-87.966476 40.569905-87.966476 90.502095v701.244953c0 49.980952 39.350857 90.502095 87.966476 90.502095h1187.986286c48.664381 0 88.015238-40.472381 88.015238-90.502095V231.375238c0-49.980952-39.399619-90.502095-88.015238-90.502095zM682.520381 863.280762c-171.105524 0-309.784381-134.729143-309.784381-300.909714 0-166.180571 138.678857-300.909714 309.784381-300.909715 171.056762 0 309.784381 134.729143 309.784381 300.860953 0 166.229333-138.727619 300.958476-309.784381 300.958476z m444.220952-541.842286c-28.476952 0-51.590095-22.430476-51.590095-50.224762 0-27.794286 23.113143-50.224762 51.590095-50.224762 28.476952 0 51.590095 22.430476 51.590096 50.224762 0 27.794286-23.113143 50.224762-51.590096 50.224762z" fill="#f6ef37" p-id="2057"></path></svg>