<?xml version="1.0" standalone="no"?><!DOCTYPE svg PUBLIC "-//W3C//DTD SVG 1.1//EN" "http://www.w3.org/Graphics/SVG/1.1/DTD/svg11.dtd"><svg t="1617021328971" class="icon" viewBox="0 0 1024 1024" version="1.1" xmlns="http://www.w3.org/2000/svg" p-id="2188" xmlns:xlink="http://www.w3.org/1999/xlink" width="200" height="200"><defs><style type="text/css"></style></defs><path d="M488.173227 813.226667a381.44 381.44 0 0 0 231.68-346.453334A366.933333 366.933333 0 0 0 358.46656 93.44 366.506667 366.506667 0 0 0 0.06656 466.773333a378.026667 378.026667 0 0 0 232.106667 346.453334 321.28 321.28 0 0 0-108.8 69.12A82.346667 82.346667 0 0 0 177.559893 1024h367.786667a82.346667 82.346667 0 0 0 54.186667-141.653333 545.28 545.28 0 0 0-111.36-69.12z m-42.666667 141.653333h-170.666667c-108.373333 0-108.373333-45.226667 2.986667-93.44a57.173333 57.173333 0 0 0 24.32-48.213333 91.733333 91.733333 0 0 0-51.2-75.52 298.666667 298.666667 0 0 1-184.746667-276.906667 293.973333 293.973333 0 0 1 292.266667-298.666667 296.106667 296.106667 0 0 1 292.266667 298.666667 309.333333 309.333333 0 0 1-186.88 283.306667 71.253333 71.253333 0 0 0-45.226667 69.12 61.866667 61.866667 0 0 0 24.32 48.213333c132.266667 45.226667 117.333333 93.44 2.986667 93.44z m0 0" fill="#333333" p-id="2189"></path><path d="M762.093227 795.306667a418.56 418.56 0 0 0 261.973333-384A408.32 408.32 0 0 0 617.453227 0a401.92 401.92 0 0 0-150.613334 30.293333 367.36 367.36 0 0 1 128 48.213334h20.906667a328.533333 328.533333 0 0 1 328.106667 328.106666 341.333333 341.333333 0 0 1-210.773334 310.186667A80.64 80.64 0 0 0 682.733227 791.893333a67.84 67.84 0 0 0 27.306666 54.613334c51.2 2.986667 183.466667 81.066667 81.066667 108.373333h-92.16a104.533333 104.533333 0 0 1-24.32 69.12h150.613333a90.026667 90.026667 0 0 0 60.16-156.586667 415.573333 415.573333 0 0 0-123.306666-72.106666z m0 0" fill="#333333" p-id="2190"></path></svg>