<?xml version="1.0" standalone="no"?><!DOCTYPE svg PUBLIC "-//W3C//DTD SVG 1.1//EN" "http://www.w3.org/Graphics/SVG/1.1/DTD/svg11.dtd"><svg t="1617021625612" class="icon" viewBox="0 0 1024 1024" version="1.1" xmlns="http://www.w3.org/2000/svg" p-id="5176" xmlns:xlink="http://www.w3.org/1999/xlink" width="200" height="200"><defs><style type="text/css"></style></defs><path d="M899.657143 182.857143l-7.314286-7.314286c-95.085714-91.428571-245.028571-87.771429-336.457143 7.314286-14.628571 14.628571-32.914286 32.914286-43.885714 47.542857l-51.2-54.857143C413.257143 131.657143 354.742857 109.714286 292.571429 109.714286c-62.171429 0-124.342857 25.6-168.228572 73.142857-95.085714 98.742857-95.085714 252.342857 0 351.085714l358.4 369.371429c7.314286 7.314286 18.285714 10.971429 29.257143 10.971428h18.285714l369.371429-380.342857c95.085714-98.742857 95.085714-252.342857 0-351.085714z m-54.857143 299.885714L512 826.514286l-332.8-343.771429C109.714286 413.257143 109.714286 303.542857 179.2 234.057143c32.914286-32.914286 73.142857-51.2 117.028571-51.2 40.228571 0 80.457143 14.628571 113.371429 43.885714l47.542857 51.2c25.6 29.257143 36.571429 40.228571 54.857143 40.228572s18.285714 0 98.742857-87.771429c62.171429-65.828571 164.571429-65.828571 230.4-3.657143l3.657143 3.657143c69.485714 73.142857 69.485714 182.857143 0 252.342857z" fill="#333333" p-id="5177"></path></svg>