<?xml version="1.0" standalone="no"?><!DOCTYPE svg PUBLIC "-//W3C//DTD SVG 1.1//EN" "http://www.w3.org/Graphics/SVG/1.1/DTD/svg11.dtd"><svg t="1617021552210" class="icon" viewBox="0 0 1063 1024" version="1.1" xmlns="http://www.w3.org/2000/svg" p-id="4137" xmlns:xlink="http://www.w3.org/1999/xlink" width="207.6171875" height="200"><defs><style type="text/css"></style></defs><path d="M755.14426158 941.23142458c-12.54890102 0-26.65382272-3.59773563-39.72979225-10.14021686L528.70639066 837.705688 340.84253958 930.94010305a84.95062907 84.95062907 0 0 1-89.54493735-6.75384886c-26.29225082-19.72548431-39.76487039-53.88868005-33.54888291-85.0027961l38.42561299-199.32443738L108.90463027 502.60001665a90.66293295 90.66293295 0 0 1-22.89778771-87.7028967l0.29411507-1.01276198c10.70326305-32.08730298 37.26624323-54.57045139 69.47047227-58.88413612l204.61041034-37.20328247L452.21853486 131.27414398c14.75611175-29.52841371 44.75762781-48.50646811 76.48785579-48.50646811 33.09916627 0 63.88049089 19.69130571 76.78556823 49.04432947l91.54347826 185.93096792 204.64189029 35.77857895a83.35683164 83.35683164 0 0 1 68.18967873 59.57220346 86.23052307 86.23052307 0 0 1-21.32377781 88.00060912l-0.50368277 0.50458233-146.85326447 138.28705665 37.11513775 199.68061284c5.97673809 31.92990233-6.72236889 64.18899705-33.16302575 84.28954481a78.77151799 78.77151799 0 0 1-49.99413153 17.37616272zM528.77744567 770.41274474l198.36114378 99.19766161c5.82563342 2.93665137 12.53900769 4.78229019 17.13331513 4.78228936 7.07134882 0 13.6372166-2.17752902 18.45998057-6.20069687l0.89943412-0.74023437c11.27170484-8.45467818 16.76814588-21.89851644 14.30099867-35.05813295l-39.9168746-215.03484809 157.88482119-148.6845122a36.0160301 36.0160301 0 0 0 8.70831866-36.8426101l-0.43262776-1.36084321a32.50733876 32.50733876 0 0 0-26.98301595-23.52739118l-0.89943411-0.14211087-218.46978662-38.19355912L559.50030728 168.89476355c-4.77329556-11.1529797-17.72784127-19.25328151-30.80740815-19.25328065-12.8511112 0-25.14637177 8.04723439-31.37405253 20.47201382L399.62413989 368.51781291l-219.61656523 39.89798663c-13.33950335 1.6729467-23.70098202 10.53237085-28.48776827 24.3476752-3.39896082 12.62445379 0.62960346 27.83657818 9.90816301 37.32020936L319.49717515 617.37946967l-41.48188987 215.14458029c-2.49413027 12.44186834 3.39806129 26.76085544 14.30099865 34.93850824a33.3069357 33.3069357 0 0 0 19.96743153 6.3742877 33.63882674 33.63882674 0 0 0 15.93886723-3.87745963l0.6817705-0.40114779 199.87399202-99.14549374z" p-id="4138"></path></svg>